<svg width="223" height="60" viewBox="0 0 223 60" fill="none" xmlns="http://www.w3.org/2000/svg">
<path d="M0.610795 36.6364V33L29.8835 18.0909V23.9091L7.42898 34.7273L7.6108 34.3636V35.2727L7.42898 34.9091L29.8835 45.7273V51.5455L0.610795 36.6364ZM222.384 36.6364L193.111 51.5455V45.7273L215.565 34.9091L215.384 35.2727V34.3636L215.565 34.7273L193.111 23.9091V18.0909L222.384 33V36.6364Z" fill="white"/>
<path d="M57.7074 4.27272L42.7074 60H37.7983L52.7983 4.27272H57.7074Z" fill="#6646C6"/>
<path d="M75.4123 53.576C72.4256 53.576 69.9296 52.936 67.9243 51.656C65.9616 50.376 64.4683 48.6053 63.4443 46.344C62.4203 44.0827 61.8229 41.4587 61.6523 38.472L68.0523 36.744C68.1803 38.5787 68.4576 40.3493 68.8843 42.056C69.3536 43.7627 70.1003 45.1707 71.1243 46.28C72.1483 47.3467 73.5776 47.88 75.4123 47.88C77.2896 47.88 78.6976 47.368 79.6363 46.344C80.6176 45.2773 81.1083 43.7627 81.1083 41.8C81.1083 39.4533 80.5749 37.576 79.5083 36.168C78.4416 34.7173 77.0976 33.2667 75.4763 31.816L66.7723 24.136C65.0656 22.6427 63.8069 21.0213 62.9963 19.272C62.1856 17.48 61.7803 15.2827 61.7803 12.68C61.7803 8.88266 62.8683 5.93866 65.0443 3.848C67.2203 1.75733 70.1856 0.711998 73.9403 0.711998C75.9883 0.711998 77.7803 0.989332 79.3163 1.544C80.8949 2.056 82.1963 2.86666 83.2203 3.976C84.2869 5.08533 85.1189 6.49333 85.7163 8.2C86.3563 9.864 86.7829 11.8267 86.9963 14.088L80.8523 15.752C80.7243 14.0453 80.4683 12.488 80.0843 11.08C79.7003 9.62933 79.0176 8.47733 78.0363 7.624C77.0976 6.728 75.7323 6.28 73.9403 6.28C72.1483 6.28 70.7403 6.77067 69.7163 7.752C68.7349 8.69066 68.2443 10.0987 68.2443 11.976C68.2443 13.5547 68.5003 14.856 69.0123 15.88C69.5669 16.904 70.4416 17.9493 71.6363 19.016L80.4043 26.696C82.3669 28.4027 84.0949 30.4507 85.5883 32.84C87.0816 35.1867 87.8283 37.9813 87.8283 41.224C87.8283 43.784 87.2949 46.0027 86.2283 47.88C85.1616 49.7147 83.6896 51.1227 81.8123 52.104C79.9776 53.0853 77.8443 53.576 75.4123 53.576Z" fill="#FF0000"/>
<path d="M103.038 53.512C100.308 53.512 98.1529 52.9573 96.5743 51.848C94.9956 50.7387 93.8649 49.16 93.1823 47.112C92.5423 45.064 92.2223 42.6533 92.2223 39.88V29.128C92.2223 26.3547 92.5423 23.944 93.1823 21.896C93.8649 19.848 94.9956 18.2693 96.5743 17.16C98.1529 16.0507 100.308 15.496 103.038 15.496C105.769 15.496 107.902 16.0507 109.438 17.16C111.017 18.2693 112.126 19.848 112.766 21.896C113.449 23.944 113.79 26.3547 113.79 29.128V39.88C113.79 42.6533 113.449 45.064 112.766 47.112C112.126 49.16 111.017 50.7387 109.438 51.848C107.902 52.9573 105.769 53.512 103.038 53.512ZM103.038 48.456C104.361 48.456 105.278 48.072 105.79 47.304C106.345 46.536 106.665 45.5333 106.75 44.296C106.878 43.016 106.942 41.6933 106.942 40.328V28.744C106.942 27.336 106.878 26.0133 106.75 24.776C106.665 23.5387 106.345 22.536 105.79 21.768C105.278 20.9573 104.361 20.552 103.038 20.552C101.716 20.552 100.777 20.9573 100.222 21.768C99.6676 22.536 99.3263 23.5387 99.1983 24.776C99.1129 26.0133 99.0703 27.336 99.0703 28.744V40.328C99.0703 41.6933 99.1129 43.016 99.1983 44.296C99.3263 45.5333 99.6676 46.536 100.222 47.304C100.777 48.072 101.716 48.456 103.038 48.456ZM120.242 53V1.16H127.09V19.848C128.327 18.6533 129.714 17.6293 131.25 16.776C132.786 15.9227 134.492 15.496 136.37 15.496C137.82 15.496 138.93 15.88 139.698 16.648C140.508 17.416 141.063 18.376 141.362 19.528C141.703 20.68 141.874 21.8533 141.874 23.048V53H135.026V25.032C135.026 23.7093 134.834 22.6853 134.45 21.96C134.066 21.2347 133.276 20.872 132.082 20.872C131.271 20.872 130.418 21.1067 129.522 21.576C128.668 22.0453 127.858 22.6213 127.09 23.304V53H120.242ZM158.79 53.512C155.888 53.512 153.648 52.9573 152.07 51.848C150.491 50.696 149.382 49.032 148.742 46.856C148.144 44.6373 147.846 41.928 147.846 38.728V30.28C147.846 26.9947 148.166 24.264 148.806 22.088C149.446 19.912 150.555 18.2693 152.134 17.16C153.755 16.0507 155.974 15.496 158.79 15.496C161.904 15.496 164.187 16.136 165.638 17.416C167.131 18.696 168.112 20.552 168.582 22.984C169.051 25.3733 169.286 28.2533 169.286 31.624V34.632H154.694V42.056C154.694 43.5493 154.822 44.7653 155.078 45.704C155.376 46.6427 155.824 47.3467 156.422 47.816C157.062 48.2427 157.872 48.456 158.854 48.456C159.878 48.456 160.646 48.2213 161.158 47.752C161.712 47.24 162.075 46.536 162.246 45.64C162.459 44.7013 162.566 43.6133 162.566 42.376V40.136H169.222V41.544C169.222 45.256 168.432 48.1787 166.854 50.312C165.275 52.4453 162.587 53.512 158.79 53.512ZM154.694 30.92H162.566V27.592C162.566 26.056 162.48 24.776 162.31 23.752C162.139 22.6853 161.776 21.896 161.222 21.384C160.71 20.8293 159.878 20.552 158.726 20.552C157.616 20.552 156.763 20.808 156.166 21.32C155.611 21.832 155.227 22.7067 155.014 23.944C154.8 25.1387 154.694 26.8027 154.694 28.936V30.92ZM176.127 53V1.16H182.975V53H176.127Z" fill="#E60000"/>
</svg>
